<?xml version="1.0" encoding="utf-8"?>
<!-- Generator: Adobe Illustrator 22.0.1, SVG Export Plug-In . SVG Version: 6.00 Build 0)  -->
<svg version="1.1" id="Layer_1" xmlns="http://www.w3.org/2000/svg" xmlns:xlink="http://www.w3.org/1999/xlink" x="0px" y="0px"
	 viewBox="0 0 547 386" style="enable-background:new 0 0 547 386;" xml:space="preserve">
<style type="text/css">
	.st0{fill:#CC0000;}
	.st1{fill:#FFFFFF;}
</style>
<path class="st0" d="M535.2,61.1c-6.3-23.7-24.8-42.3-48.3-48.6C444.3,1,273.5,1,273.5,1S102.7,1,60.1,12.5
	c-23.5,6.3-42,24.9-48.3,48.6C0.4,103.9,0.4,193.4,0.4,193.4s0,89.4,11.4,132.3c6.3,23.6,24.8,41.5,48.3,47.8
	C102.7,385,273.5,385,273.5,385s170.8,0,213.4-11.5c23.5-6.3,42-24.2,48.3-47.8c11.4-42.9,11.4-132.3,11.4-132.3
	S546.6,103.9,535.2,61.1z"/>
<polygon class="st1" points="217.6,274.6 217.6,112.2 360.4,193.4 217.6,274.6 "/>
</svg>
