<svg xmlns="http://www.w3.org/2000/svg" width="62" height="62" viewBox="0 0 62 62">
  <g id="Group_3096" data-name="Group 3096" transform="translate(53.065 7.719)">
    <path id="Path_40258" data-name="Path 40258" d="M86.38,45.844c0-3.568.012-7.137-.006-10.705a2.3,2.3,0,0,1,1.113-2.2A2.268,2.268,0,0,1,90,33.123q8.539,5.353,17.092,10.685a2.214,2.214,0,0,1-.015,4.022Q98.509,53.2,89.931,58.553a2.214,2.214,0,0,1-2.4.17,2.253,2.253,0,0,1-1.157-2.174C86.389,52.981,86.38,49.412,86.38,45.844Z" transform="translate(-116.439 -22.354)" fill="#fff"/>
    <g id="Ellipse_535" data-name="Ellipse 535" transform="translate(-53.065 -7.719)" fill="none" stroke="#fff" stroke-width="4">
      <circle cx="31" cy="31" r="31" stroke="none"/>
      <circle cx="31" cy="31" r="29" fill="none"/>
    </g>
  </g>
</svg>
